HIERARCHY
ROOT Hips
{
	OFFSET -0.179506 -22.333345 2.821913
	CHANNELS 6 Xposition Yposition Zposition Zrotation Yrotation Xrotation 
	JOINT LeftUpLeg
	{
		OFFSET 6.951974 -9.140623 -0.681533
		CHANNELS 3 Zrotation Yrotation Xrotation
		JOINT LeftLeg
		{
			OFFSET 3.427654 -37.519855 -0.449580
			CHANNELS 3 Zrotation Yrotation Xrotation
			JOINT LeftFoot
			{
				OFFSET -1.359570 -39.796059 -4.369333
				CHANNELS 3 Zrotation Yrotation Xrotation
				JOINT LeftToe
				{
					OFFSET 2.635814 -5.579078 11.928840
					CHANNELS 3 Zrotation Yrotation Xrotation
					End Site
					{
						OFFSET 0.000000 0.000000 0.000000
					}
				}
			}
		}
	}
	JOINT RightUpLeg
	{
		OFFSET -6.767048 -9.052170 -0.431982
		CHANNELS 3 Zrotation Yrotation Xrotation
		JOINT RightLeg
		{
			OFFSET -3.829005 -38.256897 -0.885003
			CHANNELS 3 Zrotation Yrotation Xrotation
			JOINT RightFoot
			{
				OFFSET 1.577377 -39.841461 -4.231180
				CHANNELS 3 Zrotation Yrotation Xrotation
				JOINT RightToe
				{
					OFFSET -2.537174 -4.814398 12.334795
					CHANNELS 3 Zrotation Yrotation Xrotation
					End Site
					{
						OFFSET 0.000000 0.000000 0.000000
					}
				}
			}
		}
	}
	JOINT Spine
	{
		OFFSET -0.253288 10.896323 -2.669631
		CHANNELS 3 Zrotation Yrotation Xrotation
		JOINT Spine1
		{
			OFFSET 0.548704 13.518043 0.109247
			CHANNELS 3 Zrotation Yrotation Xrotation
			JOINT Spine2
			{
				OFFSET 0.145701 5.292222 2.542457
				CHANNELS 3 Zrotation Yrotation Xrotation
				JOINT Neck
				{
					OFFSET -0.277840 21.387037 -4.285703
					CHANNELS 3 Zrotation Yrotation Xrotation
					JOINT Head
					{
						OFFSET 0.515184 6.496960 5.134897
						CHANNELS 3 Zrotation Yrotation Xrotation
						End Site
						{
							OFFSET 0.000000 0.000000 0.000000
						}
					}
				}
				JOINT LeftShoulder
				{
					OFFSET 7.884473 12.174932 -3.408961
					CHANNELS 3 Zrotation Yrotation Xrotation
					JOINT LeftArm
					{
						OFFSET 9.097692 3.046888 -0.886815
						CHANNELS 3 Zrotation Yrotation Xrotation
						JOINT LeftForeArm
						{
							OFFSET 25.961220 -1.277207 -2.745643
							CHANNELS 3 Zrotation Yrotation Xrotation
							JOINT LeftHand
							{
								OFFSET 24.923361 0.898606 -0.117091
								CHANNELS 3 Zrotation Yrotation Xrotation
								End Site
								{
									OFFSET 0.000000 0.000000 0.000000
								}
							}
						}
					}
				}
				JOINT RightShoulder
				{
					OFFSET -8.175920 11.883285 -3.861528
					CHANNELS 3 Zrotation Yrotation Xrotation
					JOINT RightArm
					{
						OFFSET -9.601238 3.255117 -0.914307
						CHANNELS 3 Zrotation Yrotation Xrotation
						JOINT RightForeArm
						{
							OFFSET -25.374195 -1.332924 -2.140099
							CHANNELS 3 Zrotation Yrotation Xrotation
							JOINT RightHand
							{
								OFFSET -25.529810 0.777228 -0.555919
								CHANNELS 3 Zrotation Yrotation Xrotation
								End Site
								{
									OFFSET 0.000000 0.000000 0.000000
								}
							}
						}
					}
				}
			}
		}
	}
}
MOTION
Frames: 8
Frame Time: 0.033333
-3.242005 64.475693 -9.254082 106.645776 -36.678183 166.343347 2.158787 -1.486126 6.566095 1.707235 -10.851428 4.442181 -6.407258 9.506917 22.549886 -1.175070 -1.165146 -1.624255 -4.626288 -2.904134 -6.133570 0.461230 -4.079173 21.864297 5.368777 -12.786425 20.748717 -4.150809 2.074294 -2.404450 -2.456736 -1.883215 8.884163 0.021041 -1.938951 -10.100635 1.438147 0.425315 7.374015 -4.261072 -3.579674 -1.614900 3.794267 2.022800 -5.102663 1.991206 2.764746 -5.315687 -8.941799 -2.209071 -12.205232 104.277668 -53.203694 -100.552575 30.118762 -19.432786 -16.524791 -0.795429 -5.169003 -6.169097 22.604187 -3.030012 -9.503264 -124.434271 38.601549 -107.472632 -26.996979 21.624908 -9.453652 
-3.290917 64.491776 -9.486513 106.691090 -36.265065 166.551389 2.272457 -1.401206 6.562007 1.786053 -10.780208 4.340238 -6.274013 9.608316 22.383751 -1.185807 -1.180725 -1.659782 -4.574640 -2.980009 -6.244061 0.584113 -4.185316 21.765364 5.645116 -12.684091 20.470306 -4.292630 2.041809 -2.440772 -2.460831 -1.909976 8.954260 0.081806 -1.901572 -10.158607 1.464944 0.388852 7.384656 -4.341711 -3.287190 -1.817997 3.835844 2.255448 -5.424916 2.061863 2.469676 -5.177870 -8.787432 -2.503956 -12.078535 101.811486 -53.815216 -98.826246 29.787698 -19.196975 -16.311438 -0.633121 -5.288787 -6.055794 23.020824 -3.470095 -9.411393 -122.333135 39.418170 -106.176286 -27.020188 21.305873 -9.442831 
-3.287311 64.511971 -9.863927 106.595619 -35.944511 166.877799 2.326301 -1.309292 6.522804 1.828296 -10.789327 4.322300 -6.213428 9.624306 22.383550 -1.206816 -1.146212 -1.678878 -4.485088 -2.938448 -6.395934 0.599883 -4.119941 21.810806 5.589444 -12.605586 20.354080 -4.275801 1.985791 -2.433238 -2.489853 -1.988192 9.084941 0.156973 -1.893739 -10.271752 1.475740 0.314992 7.353591 -4.396856 -3.189617 -1.987382 3.911238 2.532991 -5.649222 1.986242 2.472154 -5.123948 -8.784641 -2.594340 -12.059216 99.209077 -54.210364 -96.828176 29.393842 -18.902225 -16.129509 -0.537947 -5.526595 -6.037769 23.256184 -3.711137 -9.390827 -120.974602 39.878039 -105.355912 -27.030454 21.057712 -9.645996 
-3.281583 64.537735 -9.993224 106.661214 -36.183372 166.922889 2.370343 -1.278671 6.497872 1.907322 -10.826383 4.266965 -6.250211 9.518992 22.361752 -1.201403 -1.161700 -1.668281 -4.441916 -3.005172 -6.348651 0.612296 -4.090641 21.765489 5.539548 -12.807070 20.557875 -4.450794 2.018780 -2.470500 -2.542914 -2.010544 9.138555 0.170610 -1.852341 -10.431532 1.492490 0.263239 7.423115 -4.332276 -3.196117 -2.148463 3.996618 2.567114 -5.627203 1.967937 2.227741 -5.030619 -8.744680 -2.920660 -11.946054 97.234626 -54.635937 -95.214878 29.155054 -18.645773 -15.928419 -0.338676 -5.730191 -6.061845 23.526090 -3.999870 -9.403610 -119.657785 40.224850 -104.363533 -27.010758 20.817088 -9.645288 
-3.248746 64.564926 -10.308554 106.465694 -36.061430 167.090573 2.341156 -1.240559 6.517401 1.827057 -10.803732 4.452987 -6.290392 9.503522 22.475458 -1.167882 -1.183810 -1.717457 -4.495040 -3.023017 -6.353931 0.575818 -4.081911 21.951555 5.477728 -12.820862 20.618736 -4.517332 2.062828 -2.536397 -2.550340 -2.050767 9.226743 0.185216 -1.808077 -10.507660 1.448065 0.238783 7.413927 -4.328033 -3.332312 -2.146006 4.042807 2.530826 -5.714971 1.904662 2.275001 -4.954463 -8.785127 -2.896525 -11.976278 95.527012 -54.865935 -93.823584 29.346115 -18.430183 -15.859748 -0.262692 -5.846526 -6.002468 23.628693 -4.187925 -9.449363 -119.077852 40.385076 -104.047255 -27.187080 20.659328 -9.749098 
-3.212644 64.593781 -10.597030 106.289225 -36.034182 167.178471 2.345206 -1.179535 6.506335 1.683969 -10.763503 4.787214 -6.402024 9.411462 22.520958 -1.183499 -1.156680 -1.725375 -4.539706 -3.082181 -6.242159 0.532258 -4.028189 22.074613 5.358279 -12.845023 20.659307 -4.505457 2.078144 -2.564740 -2.548027 -2.052821 9.231319 0.182820 -1.818611 -10.540599 1.428990 0.223093 7.412691 -4.237480 -3.416856 -2.084736 4.049323 2.550930 -5.597321 1.854513 2.298367 -4.909137 -8.915552 -2.921734 -11.913769 94.866380 -55.053013 -93.416467 29.172513 -18.324705 -15.958121 -0.184824 -5.957075 -6.043514 23.711987 -4.201968 -9.451066 -118.698033 40.466732 -104.013104 -27.127676 20.470945 -9.904341 
-3.230636 64.625984 -10.854917 106.193590 -35.902883 167.296689 2.347598 -1.194364 6.523593 1.624551 -10.770682 4.951581 -6.342914 9.457152 22.429512 -1.162310 -1.143043 -1.692320 -4.569880 -3.077768 -6.241032 0.590911 -3.936809 22.217374 5.281457 -12.809297 20.629903 -4.500353 2.095474 -2.593240 -2.551881 -2.013799 9.173934 0.159090 -1.853715 -10.471521 1.433962 0.242648 7.454863 -4.278476 -3.436728 -2.115824 4.093198 2.567882 -5.569557 1.892166 2.295838 -4.818736 -9.051800 -2.948825 -11.856632 95.253593 -55.090336 -93.742160 29.161813 -18.276302 -16.034678 -0.172113 -5.993043 -6.087959 23.971998 -4.216107 -9.507360 -118.323265 40.449018 -103.933036 -27.173980 20.399344 -10.053482 
-3.194834 64.661835 -10.710551 106.154860 -36.207085 167.038595 2.341322 -1.139421 6.570570 1.418784 -10.803093 5.209184 -6.562523 9.402887 22.452573 -1.115081 -1.163868 -1.732551 -4.648981 -3.121236 -5.953779 0.492815 -3.755115 22.221802 5.242948 -13.037961 21.051843 -4.438056 2.149818 -2.616352 -2.560515 -1.989785 9.198370 0.157952 -1.894177 -10.361869 1.413059 0.255635 7.429754 -4.172023 -3.482108 -2.043915 4.100099 2.485910 -5.346354 1.848479 1.974376 -4.706127 -9.017427 -3.181753 -11.683692 96.119544 -55.204563 -94.537992 29.050463 -18.275480 -16.282778 -0.008396 -5.804137 -6.077074 23.970103 -4.095761 -9.514243 -117.901829 40.568180 -103.685979 -26.884461 20.359767 -10.075269 
